<?xml version="1.0" encoding="utf-8"?>
<!-- Generator: Adobe Illustrator 24.3.0, SVG Export Plug-In . SVG Version: 6.00 Build 0)  -->
<svg version="1.1" id="Слой_1" xmlns="http://www.w3.org/2000/svg" xmlns:xlink="http://www.w3.org/1999/xlink" x="0px" y="0px"
	 viewBox="0 0 18 17" style="enable-background:new 0 0 18 17;" xml:space="preserve">
<style type="text/css">
	.st0{fill:#8E8E93;}
</style>
<path class="st0" d="M2.3,11.3H7l-0.9,2.8c-0.2,0.5-0.1,1.1,0.2,1.5c0.3,0.4,0.8,0.7,1.4,0.7H9c0.2,0,0.5-0.1,0.6-0.3l3.9-4.7h2.1
	c0.9,0,1.7-0.7,1.7-1.7V2.2c0-0.9-0.7-1.7-1.7-1.7l-11.1,0c-0.3,0-0.7,0.1-0.9,0.3C3.4,1,3.1,1.3,3,1.6L0.7,7.7
	c0,0.1-0.1,0.2-0.1,0.3v1.7C0.7,10.6,1.4,11.3,2.3,11.3z M15.7,9.7H14V2.2h1.7V9.7z M2.3,8.2l2.2-6h7.8v8l-3.7,4.5h-1L9,10.8
	c0-0.1,0.1-0.3,0-0.4c0-0.1-0.1-0.3-0.1-0.4C8.8,9.9,8.7,9.8,8.5,9.8S8.3,9.7,8.2,9.7H2.3V8.2z"/>
<rect x="4.5" y="2.1" class="st0" width="8.4" height="5.3"/>
<rect x="3.8" y="2.3" class="st0" width="12.6" height="7.8"/>
<rect x="13.4" y="1.9" class="st0" width="2.9" height="0.9"/>
<rect x="2.8" y="4.2" class="st0" width="2.5" height="5.9"/>
<rect x="3.4" y="3.3" class="st0" width="1" height="1.9"/>
<rect x="2" y="6.8" class="st0" width="2.5" height="3.5"/>
<rect x="7.5" y="11.3" class="st0" width="2.3" height="3.6"/>
<rect x="7.3" y="10.1" class="st0" width="6.1" height="1.1"/>
<rect x="9" y="9.8" class="st0" width="2.4" height="2.9"/>
<rect x="7.5" y="10.4" class="st0" width="3" height="3"/>
<rect x="5.1" y="2.4" transform="matrix(-1 -1.224647e-16 1.224647e-16 -1 14.5082 13.2174)" class="st0" width="4.2" height="8.5"/>
<rect x="10.4" y="10.4" class="st0" width="1.8" height="1.5"/>
</svg>
