<?xml version="1.0" encoding="utf-8"?>
<!-- Generator: Adobe Illustrator 24.3.0, SVG Export Plug-In . SVG Version: 6.00 Build 0)  -->
<svg version="1.1" xmlns="http://www.w3.org/2000/svg" xmlns:xlink="http://www.w3.org/1999/xlink" x="0px" y="0px"
	 viewBox="0 0 18 17" style="enable-background:new 0 0 18 17;" xml:space="preserve">
<style type="text/css">
	.st0{fill:#F05757;}
</style>
<g id="Слой_1">
	<path class="st0" d="M15.7,5.7H11l0.9-2.8c0.2-0.5,0.1-1.1-0.2-1.5c-0.3-0.4-0.8-0.7-1.4-0.7H9C8.8,0.7,8.5,0.8,8.4,1L4.4,5.7H2.3
		c-0.9,0-1.7,0.7-1.7,1.7v7.5c0,0.9,0.7,1.7,1.7,1.7h11.1c0.3,0,0.7-0.1,0.9-0.3c0.3-0.2,0.5-0.5,0.6-0.8l2.3-6.1
		c0-0.1,0.1-0.2,0.1-0.3V7.3C17.3,6.4,16.6,5.7,15.7,5.7z M2.3,7.3H4v7.5H2.3V7.3z M15.7,8.8l-2.2,6H5.7v-8l3.7-4.5h1L9,6.2
		C9,6.4,9,6.5,9,6.6S9.1,6.9,9.2,7c0.1,0.1,0.2,0.2,0.3,0.3c0.1,0.1,0.2,0.1,0.4,0.1h5.8V8.8z"/>
</g>
<g id="Слой_2">
	<rect x="8.5" y="8.5" class="st0" width="5.2" height="6.5"/>
	<rect x="11.4" y="9.8" class="st0" width="3" height="2"/>
	<rect x="13" y="7.3" class="st0" width="2.9" height="2.7"/>
	<rect x="9.9" y="7.7" class="st0" width="4.6" height="7"/>
	<rect x="7.6" y="6.9" class="st0" width="7.9" height="4.8"/>
	<rect x="5.4" y="5.9" class="st0" width="4.2" height="9.3"/>
	<rect x="9" y="2.1" class="st0" width="1.7" height="2.1"/>
	<rect x="8.3" y="2.7" class="st0" width="1.6" height="3.1"/>
	<rect x="6.6" y="4.7" class="st0" width="3.5" height="2.7"/>
	<rect x="7.5" y="3.5" class="st0" width="2.4" height="2.7"/>
	<rect x="7.1" y="4.3" class="st0" width="1.3" height="1.3"/>
	<rect x="6.1" y="5.5" class="st0" width="1" height="1.3"/>
	<rect x="2.1" y="7.1" class="st0" width="3.8" height="8.1"/>
	<rect x="13.8" y="11.1" class="st0" width="1.4" height="1.4"/>
</g>
</svg>
