<svg width="18" height="20" viewBox="0 0 18 20" fill="none" xmlns="http://www.w3.org/2000/svg">
<path d="M5.14286 3.78572C5.14286 3.07564 5.71849 2.5 6.42857 2.5C7.13865 2.5 7.71429 3.07563 7.71429 3.78571V18.7143C7.71429 19.4244 7.13865 20 6.42857 20C5.71849 20 5.14286 19.4244 5.14286 18.7143V3.78572ZM10.2857 6.28571C10.2857 5.57563 10.8613 5 11.5714 5C12.2815 5 12.8571 5.57563 12.8571 6.28571V18.7143C12.8571 19.4244 12.2815 20 11.5714 20C10.8613 20 10.2857 19.4244 10.2857 18.7143V6.28571ZM15.4286 1.28572C15.4286 0.575635 16.0042 0 16.7143 0C17.4244 0 18 0.575634 18 1.28571V18.7143C18 19.4244 17.4244 20 16.7143 20C16.0042 20 15.4286 19.4244 15.4286 18.7143V1.28572ZM0 11.2857C0 10.5756 0.575634 10 1.28571 10C1.99579 10 2.57143 10.5756 2.57143 11.2857V18.7143C2.57143 19.4244 1.99579 20 1.28571 20C0.575634 20 0 19.4244 0 18.7143V11.2857Z" fill="#8E8E93"/>
</svg>
