<svg width="17" height="20" viewBox="0 0 17 20" fill="none" xmlns="http://www.w3.org/2000/svg">
<path d="M1.57895 4.15789C1.57895 4.71018 2.02666 5.1579 2.57895 5.1579C3.13123 5.1579 3.57895 4.71018 3.57895 4.15789H1.57895ZM3.57895 16C3.57895 15.4477 3.13123 15 2.57895 15C2.02666 15 1.57895 15.4477 1.57895 16H3.57895ZM1 8.68421C0.447715 8.68421 0 9.13193 0 9.68421C0 10.2365 0.447715 10.6842 1 10.6842V8.68421ZM11.2632 9.68421L11.9321 10.4275C12.1428 10.2379 12.2632 9.9677 12.2632 9.68421C12.2632 9.40072 12.1428 9.13056 11.9321 8.94092L11.2632 9.68421ZM7.98475 5.38829C7.57424 5.01883 6.94195 5.0521 6.5725 5.46261C6.20304 5.87312 6.23631 6.50541 6.64682 6.87487L7.98475 5.38829ZM6.64682 12.4935C6.23631 12.863 6.20304 13.4953 6.5725 13.9058C6.94195 14.3163 7.57424 14.3496 7.98475 13.9801L6.64682 12.4935ZM3.57895 4.15789V2H1.57895V4.15789H3.57895ZM3.57895 2H15V0H3.57895V2ZM15 2V2.57895H17V2H15ZM15 2.57895V17.7632H17V2.57895H15ZM15 17.7632H14.4211V19.7632H15V17.7632ZM14.4211 17.7632H3.57895V19.7632H14.4211V17.7632ZM3.57895 17.7632V16H1.57895V17.7632H3.57895ZM1 10.6842H11.2632V8.68421H1V10.6842ZM11.9321 8.94092L7.98475 5.38829L6.64682 6.87487L10.5942 10.4275L11.9321 8.94092ZM10.5942 8.94092L6.64682 12.4935L7.98475 13.9801L11.9321 10.4275L10.5942 8.94092ZM15 17.7632H15V19.7632C16.1046 19.7632 17 18.8677 17 17.7632H15ZM15 2V2H17C17 0.895431 16.1046 0 15 0V2ZM3.57895 17.7632H3.57895H1.57895C1.57895 18.8677 2.47438 19.7632 3.57895 19.7632V17.7632ZM3.57895 2L3.57895 2V0C2.47438 0 1.57895 0.895428 1.57895 2H3.57895Z" fill="#8E8E93"/>
</svg>
