<svg width="20" height="20" viewBox="0 0 20 20" fill="none" xmlns="http://www.w3.org/2000/svg">
<path d="M7.5 0C11.6419 0 15 3.35814 15 7.5C15 9.23314 14.4069 10.8238 13.4194 12.0937L19.725 18.3994C19.9081 18.5825 20 18.8219 20 19.0625C20 19.3025 19.9081 19.5425 19.725 19.7256C19.5425 19.9088 19.3025 20 19.0625 20C18.8225 20 18.5825 19.9088 18.4 19.7256L12.0938 13.4193C10.8238 14.4069 9.2331 15 7.5 15C3.35814 15 -1.90735e-06 11.6419 -1.90735e-06 7.5C-1.90735e-06 3.35814 3.35814 0 7.5 0ZM7.5 13.125C10.6019 13.125 13.125 10.6019 13.125 7.5C13.125 4.39814 10.6019 1.875 7.5 1.875C4.39814 1.875 1.875 4.39814 1.875 7.5C1.875 10.6019 4.39814 13.125 7.5 13.125Z" fill="#8E8E93"/>
</svg>
