<svg width="17" height="21" viewBox="0 0 17 21" fill="none" xmlns="http://www.w3.org/2000/svg">
<path d="M16.078 10.0042C16.078 8.51058 14.0097 7.33218 11.3911 7.33218C10.6588 7.33218 10.0042 7.40978 9.40042 7.59405V5.55249C9.40042 5.52582 9.40042 5.49914 9.40042 5.4749C9.40042 5.44822 9.40042 5.42155 9.40042 5.39731V2.67198C9.40042 1.17839 7.33219 0 4.71356 0C2.06824 0 0 1.17839 0 2.67198V5.34395C0 5.37063 0 5.39731 0 5.42155C0 5.44822 0 5.4749 0 5.49914V8.17111C0 8.19779 0 8.22447 0 8.24871C0 8.27295 0 8.30206 0 8.3263V10.9983C0 11.025 0 11.0516 0 11.0759C0 11.1001 0 11.1292 0 11.1535V13.8497C0 15.3433 2.06824 16.5217 4.68689 16.5217C5.3949 16.5217 6.07379 16.4441 6.67753 16.2865V18.328C6.67753 19.8216 8.74577 21 11.3644 21C13.9831 21 16.0513 19.8216 16.0513 18.328V15.6609C16.0513 15.6342 16.0513 15.6075 16.0513 15.5833C16.0513 15.5566 16.0513 15.53 16.0513 15.5057V12.8337C16.0513 12.8071 16.0513 12.7804 16.0513 12.7561C16.0513 12.7295 16.0513 12.7028 16.0513 12.6786V10.0042H16.078ZM1.23175 4.50502C1.25842 4.5317 1.30934 4.55838 1.33602 4.55838C1.44028 4.63597 1.57121 4.6893 1.70213 4.74265C1.83305 4.79601 1.96399 4.84692 2.09491 4.90025C2.14827 4.92693 2.19918 4.92693 2.22583 4.95361C2.3301 4.98028 2.41011 5.00696 2.51438 5.05788C2.56773 5.08455 2.61865 5.08455 2.69865 5.11123C2.80292 5.13791 2.88293 5.16458 2.9872 5.18882C3.04055 5.2155 3.11812 5.2155 3.17147 5.2155C3.27574 5.24218 3.37999 5.24218 3.48667 5.26885C3.54002 5.26885 3.61759 5.29553 3.67095 5.29553C3.77521 5.32221 3.90614 5.32221 4.01041 5.32221C4.06376 5.32221 4.11467 5.32221 4.168 5.34889C4.35228 5.34889 4.50746 5.37556 4.69174 5.37556C4.87601 5.37556 5.05785 5.37556 5.21547 5.34889C5.26883 5.34889 5.31974 5.34889 5.37307 5.32221C5.47734 5.32221 5.60826 5.29553 5.71253 5.29553C5.76589 5.29553 5.84345 5.26885 5.89681 5.26885C6.00108 5.24218 6.10532 5.24218 6.212 5.2155C6.26536 5.2155 6.34292 5.18882 6.39628 5.18882C6.50055 5.16215 6.58055 5.13547 6.68482 5.11123C6.73818 5.08455 6.78909 5.08455 6.8691 5.05788C6.97337 5.0312 7.05337 5.00452 7.15764 4.95361C7.211 4.92693 7.26191 4.92693 7.28856 4.90025C7.41948 4.8469 7.55043 4.79598 7.68135 4.74265C7.81227 4.6893 7.91654 4.61173 8.04746 4.55838C8.07414 4.5317 8.12505 4.50502 8.15173 4.50502C8.22932 4.45167 8.30933 4.40075 8.38692 4.34742C8.38692 4.34742 8.4136 4.32075 8.44028 4.32075V5.34154C8.44028 6.15379 6.92243 7.04367 4.72083 7.04367C2.51923 7.04367 1.00138 6.15382 1.00138 5.34154V4.32075C1.00138 4.32075 1.02806 4.34742 1.05474 4.34742C1.07415 4.40075 1.15171 4.45411 1.23175 4.50502ZM9.21859 12.3609C9.27194 12.3876 9.32285 12.3876 9.40286 12.4143C9.50713 12.441 9.58714 12.4677 9.69141 12.4919C9.74476 12.5186 9.82233 12.5186 9.87568 12.5186C9.97995 12.5452 10.0842 12.5452 10.1909 12.5719C10.2442 12.5719 10.3218 12.5986 10.3752 12.5986C10.4794 12.6253 10.6103 12.6253 10.7146 12.6253C10.7679 12.6253 10.8189 12.6253 10.8722 12.652C11.0565 12.652 11.2117 12.6786 11.3959 12.6786C11.5802 12.6786 11.7621 12.6786 11.9197 12.652C11.973 12.652 12.0239 12.652 12.0773 12.6253C12.1815 12.6253 12.3125 12.5986 12.4167 12.5986C12.4701 12.5986 12.5477 12.5719 12.601 12.5719C12.7053 12.5452 12.8095 12.5452 12.9162 12.5186C12.9695 12.5186 13.0471 12.4919 13.1005 12.4919C13.2048 12.4652 13.2848 12.4385 13.389 12.4143C13.4424 12.3876 13.4933 12.3876 13.5733 12.3609C13.6776 12.3343 13.7576 12.3076 13.8618 12.2567C13.9152 12.23 13.9661 12.23 13.9928 12.2033C14.1237 12.15 14.2547 12.099 14.3856 12.0457C14.5165 11.9924 14.6208 11.9148 14.7517 11.8614C14.7784 11.8348 14.8293 11.8081 14.856 11.8081C14.9336 11.7547 15.0136 11.7038 15.0912 11.6505C15.0912 11.6505 15.1179 11.6238 15.1445 11.6238V12.6446C15.1445 13.4569 13.6267 14.3467 11.4251 14.3467C10.4819 14.3467 9.6454 14.1891 9.01498 13.9273C9.01498 13.9273 8.9883 13.9273 8.9883 13.9006C8.28029 13.612 7.80991 13.1926 7.70564 12.7998C7.70564 12.7998 7.70564 12.7998 7.70564 12.7731C7.70564 12.7464 7.70564 12.7198 7.70564 12.6955V11.5947C7.759 11.6214 7.78323 11.6481 7.83656 11.699C7.83656 11.699 7.83656 11.699 7.86324 11.699C7.88992 11.699 7.88992 11.7257 7.91659 11.7257C7.96995 11.7523 7.99419 11.779 8.04751 11.8033C8.10087 11.8299 8.12511 11.8566 8.17844 11.8809H8.20511C8.23179 11.8809 8.23179 11.9075 8.25847 11.9075C8.36274 11.9609 8.46698 12.0118 8.59793 12.0651C8.6246 12.0651 8.65128 12.0918 8.67552 12.0918C8.72887 12.1185 8.80644 12.1452 8.85979 12.1694C8.91315 12.1961 8.93739 12.1961 8.99072 12.2228C9.00763 12.31 9.1119 12.3367 9.21859 12.3609ZM6.70421 12.4409C6.10288 12.6252 5.42155 12.7295 4.71356 12.7295C2.51441 12.7295 0.994142 11.8396 0.994142 11.0274V10.0066C1.85731 10.6346 3.19333 11.0274 4.71359 11.0274C5.4216 11.0274 6.10049 10.9498 6.70423 10.7922L6.70421 12.4409ZM15.1105 15.5033C15.1105 16.3156 13.5927 17.2054 11.3911 17.2054C9.26947 17.2054 7.75165 16.3665 7.67162 15.5809V14.4801C7.88013 14.6377 8.11776 14.7686 8.37963 14.8996C8.43298 14.9262 8.45722 14.9529 8.51055 14.9529C8.53723 14.9529 8.5639 14.9796 8.58814 14.9796C9.37374 15.2948 10.3169 15.5033 11.3911 15.5033C12.9356 15.5033 14.2716 15.1105 15.1105 14.4825V15.5033ZM7.04367 8.95672C6.99031 9.01007 6.96607 9.08764 6.91275 9.14099C6.88607 9.16767 6.88607 9.19435 6.85939 9.24526C6.83271 9.29862 6.80604 9.34953 6.80604 9.37618C6.77936 9.42954 6.77936 9.48045 6.75268 9.5071C6.75268 9.53378 6.726 9.53378 6.726 9.56046C6.12468 9.76897 5.41669 9.87565 4.68445 9.87565C2.48526 9.87565 0.965025 8.98581 0.965025 8.17353V7.15276C1.82819 7.78074 3.16421 8.17356 4.68447 8.17356C6.20474 8.17356 7.56496 7.78077 8.40392 7.15276V7.88501C7.80259 8.14688 7.3298 8.51299 7.04125 8.9058C7.07032 8.95672 7.04367 8.95672 7.04367 8.95672ZM15.1105 10.0042C15.1105 10.8164 13.5927 11.7063 11.3911 11.7063C10.3703 11.7063 9.50466 11.522 8.87669 11.2359C8.79909 11.2092 8.71909 11.1583 8.6415 11.1316C8.6415 11.1316 8.61482 11.1316 8.61482 11.105C8.61482 11.105 8.61482 11.105 8.58814 11.105L8.48387 11.0516C8.43052 10.9983 8.40628 10.974 8.3796 10.974C8.3796 10.974 8.35292 10.974 8.35292 10.9473C8.35292 10.9473 8.35292 10.9473 8.32625 10.9473C8.27289 10.9207 8.22198 10.8697 8.16865 10.8164C8.16865 10.8164 8.16865 10.8164 8.14197 10.8164C8.1153 10.7897 8.08862 10.7631 8.06438 10.7388C8.0377 10.7121 8.01103 10.6855 7.98679 10.6855C7.96011 10.6588 7.93343 10.6321 7.9092 10.6079C7.88252 10.5812 7.85584 10.5545 7.85584 10.5303C7.82916 10.5036 7.82916 10.4769 7.80249 10.4527C7.77581 10.426 7.77581 10.3993 7.74913 10.3751C7.69578 10.2708 7.67154 10.1908 7.67154 10.0866C7.67154 10.0599 7.67154 10.0332 7.67154 10.0332C7.67154 9.97985 7.67154 9.92893 7.69822 9.84892C7.82914 9.42946 8.32619 9.03667 9.08512 8.74813H9.1118C9.73978 8.51294 10.4987 8.35534 11.4152 8.35534C13.5902 8.30204 15.1105 9.19432 15.1105 10.0042ZM4.68689 0.969878C6.88607 0.969878 8.40633 1.85972 8.40633 2.672C8.40633 3.48428 6.88848 4.37413 4.68689 4.37413C2.48529 4.37413 0.967438 3.48428 0.967438 2.672C0.969878 1.8864 2.4877 0.969878 4.68689 0.969878ZM0.969878 13.8545V12.8337C1.83305 13.4617 3.16906 13.8545 4.6893 13.8545C5.39731 13.8545 6.0762 13.7769 6.67994 13.6193V15.2948C6.07861 15.4791 5.39728 15.5833 4.6893 15.5833C2.4877 15.5567 0.969878 14.6668 0.969878 13.8545ZM15.1105 18.3329C15.1105 19.1451 13.5927 20.035 11.3911 20.035C9.18947 20.035 7.67162 19.1452 7.67162 18.3329V17.3121C8.53479 17.9401 9.87078 18.3329 11.3911 18.3329C12.9114 18.3329 14.2716 17.9401 15.1105 17.3121V18.3329Z" fill="#404040"/>
</svg>
