<svg width="19" height="11" viewBox="0 0 19 11" fill="none" xmlns="http://www.w3.org/2000/svg">
<path d="M17.9474 0.738834C18.0757 0.312584 17.9474 0 17.3406 0H15.3303C14.8188 0 14.5851 0.270417 14.4567 0.567417C14.4567 0.567417 13.4347 3.05983 11.9863 4.67592C11.5188 5.14617 11.3052 5.29467 11.0504 5.29467C10.923 5.29467 10.7378 5.14617 10.7378 4.71992V0.738834C10.7378 0.227334 10.5902 0 10.164 0H7.00517C6.68617 0 6.49367 0.2365 6.49367 0.462C6.49367 0.946 7.21783 1.05783 7.29208 2.42183V5.38083C7.29208 6.02892 7.17567 6.14717 6.919 6.14717C6.23792 6.14717 4.58058 3.64558 3.597 0.781917C3.40542 0.2255 3.212 0.000917037 2.69867 0.000917037H0.689333C0.114583 0.000917037 0 0.271334 0 0.568334C0 1.10183 0.681083 3.74183 3.17258 7.23342C4.83358 9.61767 7.172 10.9102 9.30233 10.9102C10.5792 10.9102 10.7369 10.6233 10.7369 10.1283V8.32608C10.7369 7.75225 10.8588 7.63675 11.2631 7.63675C11.5601 7.63675 12.0716 7.78708 13.2642 8.93567C14.6263 10.2978 14.8518 10.9093 15.6172 10.9093H17.6266C18.2004 10.9093 18.4873 10.6223 18.3223 10.0558C18.1417 9.49208 17.4909 8.67167 16.6274 7.70092C16.1581 7.14725 15.4568 6.55142 15.2432 6.2535C14.9453 5.86942 15.0315 5.69983 15.2432 5.35883C15.2442 5.35975 17.6926 1.91125 17.9474 0.738834Z" fill="white"/>
</svg>
