<svg width="18" height="17" viewBox="0 0 18 17" fill="none" xmlns="http://www.w3.org/2000/svg">
<path d="M17.0254 11.709H5.39453L5.97851 10.5196L15.6816 10.502C16.0098 10.502 16.291 10.2676 16.3496 9.94339L17.6933 2.42191C17.7285 2.22464 17.6758 2.02151 17.5469 1.86722C17.4832 1.79128 17.4037 1.73011 17.314 1.68795C17.2243 1.6458 17.1265 1.62366 17.0273 1.62308L4.68359 1.58206L4.57812 1.08597C4.51172 0.769562 4.22656 0.539093 3.90234 0.539093H0.884765C0.701911 0.539093 0.526546 0.611732 0.397249 0.741029C0.267951 0.870327 0.195313 1.04569 0.195312 1.22855C0.195313 1.4114 0.267951 1.58677 0.397249 1.71606C0.526546 1.84536 0.701911 1.918 0.884765 1.918H3.34375L3.80469 4.10941L4.93945 9.60355L3.47851 11.9883C3.40265 12.0907 3.35695 12.2123 3.34659 12.3393C3.33624 12.4663 3.36164 12.5937 3.41992 12.7071C3.53711 12.9395 3.77344 13.086 4.03515 13.086H5.26172C5.00023 13.4333 4.85899 13.8563 4.85937 14.291C4.85937 15.3965 5.75781 16.295 6.86328 16.295C7.96875 16.295 8.86718 15.3965 8.86718 14.291C8.86718 13.8555 8.72265 13.4317 8.46484 13.086H11.6113C11.3498 13.4333 11.2086 13.8563 11.209 14.291C11.209 15.3965 12.1074 16.295 13.2129 16.295C14.3184 16.295 15.2168 15.3965 15.2168 14.291C15.2168 13.8555 15.0723 13.4317 14.8144 13.086H17.0273C17.4062 13.086 17.7168 12.7774 17.7168 12.3965C17.7157 12.2139 17.6423 12.0391 17.5128 11.9103C17.3833 11.7815 17.208 11.7091 17.0254 11.709ZM4.9707 2.94144L16.2168 2.97855L15.1152 9.14651L6.28125 9.16214L4.9707 2.94144ZM6.86328 14.9082C6.52343 14.9082 6.24609 14.6309 6.24609 14.291C6.24609 13.9512 6.52343 13.6739 6.86328 13.6739C7.20312 13.6739 7.48047 13.9512 7.48047 14.291C7.48047 14.4547 7.41544 14.6117 7.2997 14.7275C7.18395 14.8432 7.02697 14.9082 6.86328 14.9082ZM13.2129 14.9082C12.873 14.9082 12.5957 14.6309 12.5957 14.291C12.5957 13.9512 12.873 13.6739 13.2129 13.6739C13.5527 13.6739 13.8301 13.9512 13.8301 14.291C13.8301 14.4547 13.765 14.6117 13.6493 14.7275C13.5336 14.8432 13.3766 14.9082 13.2129 14.9082Z" fill="white"/>
</svg>
