<svg width="20" height="18" viewBox="0 0 20 18" fill="none" xmlns="http://www.w3.org/2000/svg">
<path d="M9.25029 2.60018L10 3.44952L10.7497 2.60018C11.6225 1.61143 12.8718 1 14.2548 1C16.8491 1 19 3.17127 19 5.90938C19 7.36057 18.393 8.65828 17.4329 9.55486L15.5795 11.2857H15.7581L11.158 16.0172C10.8324 16.3521 10.5716 16.6175 10.3267 16.8064C10.1191 16.9665 10.0189 16.9943 10 16.999C9.98109 16.9943 9.88086 16.9665 9.6733 16.8064C9.42836 16.6175 9.16757 16.3521 8.842 16.0172L4.24193 11.2857H4.42055L2.56709 9.55485C1.60701 8.65827 1 7.36056 1 5.90938C1 3.17126 3.15088 1 5.74523 1C7.12816 1 8.37752 1.61143 9.25029 2.60018Z" stroke="#8E8E93" stroke-width="2"/>
</svg>
