<svg width="18" height="17" viewBox="0 0 18 17" fill="none" xmlns="http://www.w3.org/2000/svg">
<path d="M15.6665 5.66699H10.9898L11.9257 2.86116C12.094 2.35449 12.009 1.79283 11.6965 1.35949C11.384 0.926161 10.8773 0.666994 10.3432 0.666994H8.99984C8.75234 0.666994 8.51817 0.776994 8.359 0.966994L4.44234 5.66699H2.33317C1.414 5.66699 0.666504 6.41449 0.666504 7.33366V14.8337C0.666504 15.7528 1.414 16.5003 2.33317 16.5003H13.4223C13.7614 16.4992 14.0922 16.3952 14.3709 16.2021C14.6495 16.0089 14.8631 15.7358 14.9832 15.4187L17.2807 9.29283C17.3156 9.19926 17.3333 9.10019 17.3332 9.00033V7.33366C17.3332 6.41449 16.5857 5.66699 15.6665 5.66699ZM2.33317 7.33366H3.99984V14.8337H2.33317V7.33366ZM15.6665 8.84949L13.4223 14.8337H5.6665V6.80199L9.38984 2.33366H10.3448L9.04317 6.23616C9.00091 6.36142 8.98913 6.49495 9.00879 6.62568C9.02845 6.75641 9.07899 6.88057 9.15622 6.98786C9.23345 7.09515 9.33515 7.18249 9.45288 7.24263C9.57061 7.30277 9.70097 7.33397 9.83317 7.33366H15.6665V8.84949Z" fill="#F05757"/>
</svg>
