<svg width="149" height="35" viewBox="0 0 149 35" fill="none" xmlns="http://www.w3.org/2000/svg">
<path d="M85.5416 21.1579L85.5416 7.59126C85.5416 7.44539 85.5996 7.3055 85.7027 7.20235C85.8059 7.09921 85.9458 7.04126 86.0916 7.04126L94.1583 7.04126C94.2305 7.04126 94.302 7.05549 94.3688 7.08313C94.4355 7.11077 94.4961 7.15128 94.5472 7.20235C94.5983 7.25342 94.6388 7.31405 94.6664 7.38078C94.6941 7.44751 94.7083 7.51903 94.7083 7.59126L94.7083 21.1579C94.7083 21.2302 94.6941 21.3017 94.6664 21.3684C94.6388 21.4351 94.5983 21.4958 94.5472 21.5468C94.4961 21.5979 94.4355 21.6384 94.3688 21.6661C94.302 21.6937 94.2305 21.7079 94.1583 21.7079L86.0916 21.7079C85.9458 21.7079 85.8059 21.65 85.7027 21.5468C85.5996 21.4437 85.5416 21.3038 85.5416 21.1579V21.1579Z" stroke="white" stroke-width="2.2" stroke-linecap="round" stroke-linejoin="round"/>
<path d="M91.9584 21.7087L91.9584 24.0004" stroke="white" stroke-width="2.2" stroke-linecap="round" stroke-linejoin="round"/>
<path d="M88.2916 21.7087L88.2916 24.0004" stroke="white" stroke-width="2.2" stroke-linecap="round" stroke-linejoin="round"/>
<path d="M91.9584 7.04167L91.9584 4.75" stroke="white" stroke-width="2.2" stroke-linecap="round" stroke-linejoin="round"/>
<path d="M88.2916 7.04167L88.2916 4.75" stroke="white" stroke-width="2.2" stroke-linecap="round" stroke-linejoin="round"/>
<path d="M85.5417 14.375L83.25 14.375" stroke="white" stroke-width="2.2" stroke-linecap="round" stroke-linejoin="round"/>
<path d="M97 14.375L94.7084 14.375" stroke="white" stroke-width="2.2" stroke-linecap="round" stroke-linejoin="round"/>
<path d="M85.5417 9.33374L83.25 9.33374" stroke="white" stroke-width="2.2" stroke-linecap="round" stroke-linejoin="round"/>
<path d="M97 9.33374L94.7084 9.33374" stroke="white" stroke-width="2.2" stroke-linecap="round" stroke-linejoin="round"/>
<path d="M85.5417 19.4163L83.25 19.4163" stroke="white" stroke-width="2.2" stroke-linecap="round" stroke-linejoin="round"/>
<path d="M97 19.4163L94.7084 19.4163" stroke="white" stroke-width="2.2" stroke-linecap="round" stroke-linejoin="round"/>
<path d="M2.992 6.6H10.362C10.7433 6.6 11.0587 6.72467 11.308 6.974C11.572 7.20867 11.704 7.51667 11.704 7.898C11.704 8.26467 11.572 8.56533 11.308 8.8C11.0587 9.02 10.7433 9.13 10.362 9.13H4.202L4.4 8.756V13.046L4.224 12.87H9.372C9.75333 12.87 10.0687 12.9947 10.318 13.244C10.582 13.4787 10.714 13.7867 10.714 14.168C10.714 14.5347 10.582 14.8353 10.318 15.07C10.0687 15.29 9.75333 15.4 9.372 15.4H4.29L4.4 15.224V19.668L4.224 19.47H10.362C10.7433 19.47 11.0587 19.602 11.308 19.866C11.572 20.1153 11.704 20.4087 11.704 20.746C11.704 21.1127 11.572 21.4133 11.308 21.648C11.0587 21.8827 10.7433 22 10.362 22H2.992C2.61067 22 2.288 21.8753 2.024 21.626C1.77467 21.362 1.65 21.0393 1.65 20.658V7.942C1.65 7.56067 1.77467 7.24533 2.024 6.996C2.288 6.732 2.61067 6.6 2.992 6.6ZM22.7318 19.426C23.1132 19.426 23.4285 19.5507 23.6778 19.8C23.9418 20.0347 24.0738 20.3427 24.0738 20.724C24.0738 21.0907 23.9418 21.3987 23.6778 21.648C23.4285 21.8827 23.1132 22 22.7318 22H15.5818C15.2005 22 14.8778 21.8753 14.6138 21.626C14.3645 21.362 14.2398 21.0393 14.2398 20.658V7.942C14.2398 7.56067 14.3718 7.24533 14.6358 6.996C14.8998 6.732 15.2372 6.6 15.6478 6.6C15.9998 6.6 16.3078 6.732 16.5718 6.996C16.8505 7.24533 16.9898 7.56067 16.9898 7.942V19.8L16.5058 19.426H22.7318ZM27.9354 6.6H35.3054C35.6867 6.6 36.002 6.72467 36.2514 6.974C36.5154 7.20867 36.6474 7.51667 36.6474 7.898C36.6474 8.26467 36.5154 8.56533 36.2514 8.8C36.002 9.02 35.6867 9.13 35.3054 9.13H29.1454L29.3434 8.756V13.046L29.1674 12.87H34.3154C34.6967 12.87 35.012 12.9947 35.2614 13.244C35.5254 13.4787 35.6574 13.7867 35.6574 14.168C35.6574 14.5347 35.5254 14.8353 35.2614 15.07C35.012 15.29 34.6967 15.4 34.3154 15.4H29.2334L29.3434 15.224V19.668L29.1674 19.47H35.3054C35.6867 19.47 36.002 19.602 36.2514 19.866C36.5154 20.1153 36.6474 20.4087 36.6474 20.746C36.6474 21.1127 36.5154 21.4133 36.2514 21.648C36.002 21.8827 35.6867 22 35.3054 22H27.9354C27.554 22 27.2314 21.8753 26.9674 21.626C26.718 21.362 26.5934 21.0393 26.5934 20.658V7.942C26.5934 7.56067 26.718 7.24533 26.9674 6.996C27.2314 6.732 27.554 6.6 27.9354 6.6ZM49.9632 7.348C50.3445 7.53867 50.5645 7.83933 50.6232 8.25C50.6965 8.66067 50.5939 9.03467 50.3152 9.372C50.1245 9.636 49.8752 9.78267 49.5672 9.812C49.2739 9.84133 48.9732 9.78267 48.6652 9.636C48.3132 9.47467 47.9392 9.35 47.5432 9.262C47.1619 9.174 46.7585 9.13 46.3332 9.13C45.5412 9.13 44.8299 9.25467 44.1992 9.504C43.5832 9.75333 43.0552 10.1127 42.6152 10.582C42.1752 11.0367 41.8379 11.5793 41.6032 12.21C41.3832 12.8407 41.2732 13.5373 41.2732 14.3C41.2732 15.1947 41.3979 15.972 41.6472 16.632C41.9112 17.292 42.2705 17.842 42.7252 18.282C43.1799 18.722 43.7152 19.052 44.3312 19.272C44.9472 19.4773 45.6145 19.58 46.3332 19.58C46.7292 19.58 47.1252 19.5433 47.5212 19.47C47.9172 19.3967 48.2985 19.2647 48.6652 19.074C48.9732 18.9273 49.2739 18.876 49.5672 18.92C49.8752 18.964 50.1319 19.118 50.3372 19.382C50.6305 19.7487 50.7332 20.13 50.6452 20.526C50.5719 20.9073 50.3519 21.186 49.9852 21.362C49.6039 21.5527 49.2079 21.714 48.7972 21.846C48.4012 21.9633 47.9979 22.0513 47.5872 22.11C47.1765 22.1833 46.7585 22.22 46.3332 22.22C45.2772 22.22 44.2725 22.0513 43.3192 21.714C42.3805 21.3767 41.5372 20.878 40.7892 20.218C40.0559 19.558 39.4765 18.7367 39.0512 17.754C38.6259 16.7567 38.4132 15.6053 38.4132 14.3C38.4132 13.1707 38.6039 12.1293 38.9852 11.176C39.3812 10.2227 39.9312 9.40133 40.6352 8.712C41.3539 8.008 42.1972 7.46533 43.1652 7.084C44.1332 6.688 45.1892 6.49 46.3332 6.49C46.9785 6.49 47.6092 6.56333 48.2252 6.71C48.8412 6.85667 49.4205 7.06933 49.9632 7.348ZM58.1902 22C57.7795 22 57.4422 21.8753 57.1782 21.626C56.9142 21.362 56.7822 21.0393 56.7822 20.658V7.898H59.6422V20.658C59.6422 21.0393 59.5028 21.362 59.2242 21.626C58.9602 21.8753 58.6155 22 58.1902 22ZM53.3282 9.13C52.9468 9.13 52.6242 9.01267 52.3602 8.778C52.1108 8.54333 51.9862 8.23533 51.9862 7.854C51.9862 7.47267 52.1108 7.172 52.3602 6.952C52.6242 6.71733 52.9468 6.6 53.3282 6.6H63.0962C63.4775 6.6 63.7928 6.71733 64.0422 6.952C64.3062 7.18667 64.4382 7.49467 64.4382 7.876C64.4382 8.25733 64.3062 8.56533 64.0422 8.8C63.7928 9.02 63.4775 9.13 63.0962 9.13H53.3282ZM68.3317 22C67.921 22 67.5543 21.8753 67.2317 21.626C66.909 21.362 66.7477 21.0393 66.7477 20.658V7.942C66.7477 7.56067 66.8723 7.24533 67.1217 6.996C67.3857 6.732 67.7083 6.6 68.0897 6.6H74.4257C75.1883 6.6 75.8997 6.80533 76.5597 7.216C77.2343 7.612 77.777 8.16933 78.1877 8.888C78.5983 9.592 78.8037 10.406 78.8037 11.33C78.8037 11.8873 78.6863 12.43 78.4517 12.958C78.2317 13.486 77.9237 13.9627 77.5277 14.388C77.1463 14.8133 76.7137 15.1433 76.2297 15.378L76.2517 14.872C76.6623 15.092 76.9997 15.356 77.2637 15.664C77.5423 15.9573 77.755 16.28 77.9017 16.632C78.063 16.9693 78.1583 17.336 78.1877 17.732C78.2463 18.0987 78.283 18.4213 78.2977 18.7C78.327 18.9787 78.371 19.2133 78.4297 19.404C78.503 19.5947 78.635 19.7413 78.8257 19.844C79.1483 20.0347 79.3463 20.3133 79.4197 20.68C79.5077 21.032 79.427 21.3473 79.1777 21.626C79.0163 21.8167 78.811 21.9413 78.5617 22C78.3123 22.044 78.063 22.044 77.8137 22C77.5643 21.9413 77.359 21.868 77.1977 21.78C76.9483 21.6333 76.699 21.4207 76.4497 21.142C76.2003 20.8487 75.995 20.46 75.8337 19.976C75.687 19.492 75.6137 18.8687 75.6137 18.106C75.6137 17.8567 75.5697 17.6293 75.4817 17.424C75.3937 17.204 75.269 17.0207 75.1077 16.874C74.9463 16.7127 74.741 16.5953 74.4917 16.522C74.2423 16.434 73.949 16.39 73.6117 16.39H69.1677L69.4977 15.884V20.658C69.4977 21.0393 69.395 21.362 69.1897 21.626C68.9843 21.8753 68.6983 22 68.3317 22ZM69.1897 14.124H74.3157C74.5797 14.124 74.8363 14.0067 75.0857 13.772C75.335 13.5227 75.5403 13.1927 75.7017 12.782C75.863 12.3567 75.9437 11.8947 75.9437 11.396C75.9437 10.7507 75.7677 10.2153 75.4157 9.79C75.0783 9.35 74.7117 9.13 74.3157 9.13H69.2337L69.4977 8.426V14.652L69.1897 14.124Z" fill="white"/>
<rect x="1" y="32" width="147" height="3" rx="1.5" fill="white"/>
<path d="M112.332 6.6C112.684 6.6 112.97 6.71733 113.19 6.952C113.41 7.18667 113.52 7.48 113.52 7.832V20.658C113.52 21.0393 113.388 21.362 113.124 21.626C112.875 21.8753 112.559 22 112.178 22C111.987 22 111.789 21.9707 111.584 21.912C111.393 21.8387 111.247 21.7433 111.144 21.626L102.498 10.648L103.07 10.296V20.768C103.07 21.12 102.953 21.4133 102.718 21.648C102.498 21.8827 102.205 22 101.838 22C101.486 22 101.2 21.8827 100.98 21.648C100.76 21.4133 100.65 21.12 100.65 20.768V7.942C100.65 7.56067 100.775 7.24533 101.024 6.996C101.288 6.732 101.611 6.6 101.992 6.6C102.197 6.6 102.41 6.644 102.63 6.732C102.85 6.80533 103.011 6.92267 103.114 7.084L111.496 17.776L111.122 18.04V7.832C111.122 7.48 111.232 7.18667 111.452 6.952C111.672 6.71733 111.965 6.6 112.332 6.6ZM119.578 20.658C119.578 21.0393 119.438 21.362 119.16 21.626C118.881 21.8753 118.558 22 118.192 22C117.781 22 117.451 21.8753 117.202 21.626C116.952 21.362 116.828 21.0393 116.828 20.658V7.942C116.828 7.56067 116.96 7.24533 117.224 6.996C117.488 6.732 117.825 6.6 118.236 6.6C118.588 6.6 118.896 6.732 119.16 6.996C119.438 7.24533 119.578 7.56067 119.578 7.942V20.658ZM133.666 7.348C134.048 7.53867 134.268 7.83933 134.326 8.25C134.4 8.66067 134.297 9.03467 134.018 9.372C133.828 9.636 133.578 9.78267 133.27 9.812C132.977 9.84133 132.676 9.78267 132.368 9.636C132.016 9.47467 131.642 9.35 131.246 9.262C130.865 9.174 130.462 9.13 130.036 9.13C129.244 9.13 128.533 9.25467 127.902 9.504C127.286 9.75333 126.758 10.1127 126.318 10.582C125.878 11.0367 125.541 11.5793 125.306 12.21C125.086 12.8407 124.976 13.5373 124.976 14.3C124.976 15.1947 125.101 15.972 125.35 16.632C125.614 17.292 125.974 17.842 126.428 18.282C126.883 18.722 127.418 19.052 128.034 19.272C128.65 19.4773 129.318 19.58 130.036 19.58C130.432 19.58 130.828 19.5433 131.224 19.47C131.62 19.3967 132.002 19.2647 132.368 19.074C132.676 18.9273 132.977 18.876 133.27 18.92C133.578 18.964 133.835 19.118 134.04 19.382C134.334 19.7487 134.436 20.13 134.348 20.526C134.275 20.9073 134.055 21.186 133.688 21.362C133.307 21.5527 132.911 21.714 132.5 21.846C132.104 21.9633 131.701 22.0513 131.29 22.11C130.88 22.1833 130.462 22.22 130.036 22.22C128.98 22.22 127.976 22.0513 127.022 21.714C126.084 21.3767 125.24 20.878 124.492 20.218C123.759 19.558 123.18 18.7367 122.754 17.754C122.329 16.7567 122.116 15.6053 122.116 14.3C122.116 13.1707 122.307 12.1293 122.688 11.176C123.084 10.2227 123.634 9.40133 124.338 8.712C125.057 8.008 125.9 7.46533 126.868 7.084C127.836 6.688 128.892 6.49 130.036 6.49C130.682 6.49 131.312 6.56333 131.928 6.71C132.544 6.85667 133.124 7.06933 133.666 7.348ZM141.629 22.22C140.603 22.22 139.679 22.0953 138.857 21.846C138.036 21.582 137.251 21.1273 136.503 20.482C136.313 20.3207 136.166 20.1373 136.063 19.932C135.961 19.7267 135.909 19.5213 135.909 19.316C135.909 18.9787 136.027 18.6853 136.261 18.436C136.511 18.172 136.819 18.04 137.185 18.04C137.464 18.04 137.713 18.128 137.933 18.304C138.491 18.7587 139.041 19.1033 139.583 19.338C140.141 19.5727 140.823 19.69 141.629 19.69C142.172 19.69 142.671 19.6093 143.125 19.448C143.58 19.272 143.947 19.0447 144.225 18.766C144.504 18.4727 144.643 18.1427 144.643 17.776C144.643 17.336 144.511 16.962 144.247 16.654C143.983 16.346 143.58 16.0893 143.037 15.884C142.495 15.664 141.805 15.4953 140.969 15.378C140.177 15.2607 139.481 15.0847 138.879 14.85C138.278 14.6007 137.772 14.2927 137.361 13.926C136.965 13.5447 136.665 13.1047 136.459 12.606C136.254 12.0927 136.151 11.5207 136.151 10.89C136.151 9.93667 136.393 9.12267 136.877 8.448C137.376 7.77333 138.043 7.26 138.879 6.908C139.715 6.556 140.639 6.38 141.651 6.38C142.605 6.38 143.485 6.52667 144.291 6.82C145.113 7.09867 145.78 7.458 146.293 7.898C146.719 8.23533 146.931 8.624 146.931 9.064C146.931 9.38667 146.807 9.68 146.557 9.944C146.308 10.208 146.015 10.34 145.677 10.34C145.457 10.34 145.259 10.274 145.083 10.142C144.849 9.93667 144.533 9.746 144.137 9.57C143.741 9.37933 143.323 9.22533 142.883 9.108C142.443 8.976 142.033 8.91 141.651 8.91C141.021 8.91 140.485 8.99067 140.045 9.152C139.62 9.31333 139.297 9.53333 139.077 9.812C138.857 10.0907 138.747 10.4133 138.747 10.78C138.747 11.22 138.872 11.5867 139.121 11.88C139.385 12.1587 139.759 12.386 140.243 12.562C140.727 12.7233 141.307 12.87 141.981 13.002C142.861 13.1633 143.631 13.354 144.291 13.574C144.966 13.794 145.523 14.08 145.963 14.432C146.403 14.7693 146.733 15.202 146.953 15.73C147.173 16.2433 147.283 16.874 147.283 17.622C147.283 18.5753 147.019 19.3967 146.491 20.086C145.963 20.7753 145.267 21.3033 144.401 21.67C143.551 22.0367 142.627 22.22 141.629 22.22Z" fill="white"/>
</svg>
