<svg width="18" height="17" viewBox="0 0 18 17" fill="none" xmlns="http://www.w3.org/2000/svg">
<path d="M17.0254 11.709H5.39453L5.97851 10.5195L15.6816 10.502C16.0098 10.502 16.291 10.2676 16.3496 9.94336L17.6933 2.42187C17.7285 2.22461 17.6758 2.02148 17.5469 1.86719C17.4832 1.79125 17.4037 1.73008 17.314 1.68792C17.2243 1.64577 17.1265 1.62363 17.0273 1.62305L4.68359 1.58203L4.57812 1.08594C4.51172 0.769531 4.22656 0.539062 3.90234 0.539062H0.884765C0.701911 0.539063 0.526546 0.611701 0.397249 0.740999C0.267951 0.870296 0.195313 1.04566 0.195312 1.22852C0.195313 1.41137 0.267951 1.58674 0.397249 1.71603C0.526546 1.84533 0.701911 1.91797 0.884765 1.91797H3.34375L3.80469 4.10937L4.93945 9.60352L3.47851 11.9883C3.40265 12.0907 3.35695 12.2123 3.34659 12.3393C3.33624 12.4663 3.36164 12.5937 3.41992 12.707C3.53711 12.9395 3.77344 13.0859 4.03515 13.0859H5.26172C5.00023 13.4332 4.85899 13.8563 4.85937 14.291C4.85937 15.3965 5.75781 16.2949 6.86328 16.2949C7.96875 16.2949 8.86718 15.3965 8.86718 14.291C8.86718 13.8555 8.72265 13.4316 8.46484 13.0859H11.6113C11.3498 13.4332 11.2086 13.8563 11.209 14.291C11.209 15.3965 12.1074 16.2949 13.2129 16.2949C14.3184 16.2949 15.2168 15.3965 15.2168 14.291C15.2168 13.8555 15.0723 13.4316 14.8144 13.0859H17.0273C17.4062 13.0859 17.7168 12.7773 17.7168 12.3965C17.7157 12.2138 17.6423 12.039 17.5128 11.9102C17.3833 11.7814 17.208 11.7091 17.0254 11.709ZM4.9707 2.94141L16.2168 2.97852L15.1152 9.14648L6.28125 9.16211L4.9707 2.94141ZM6.86328 14.9082C6.52343 14.9082 6.24609 14.6309 6.24609 14.291C6.24609 13.9512 6.52343 13.6738 6.86328 13.6738C7.20312 13.6738 7.48047 13.9512 7.48047 14.291C7.48047 14.4547 7.41544 14.6117 7.2997 14.7274C7.18395 14.8432 7.02697 14.9082 6.86328 14.9082ZM13.2129 14.9082C12.873 14.9082 12.5957 14.6309 12.5957 14.291C12.5957 13.9512 12.873 13.6738 13.2129 13.6738C13.5527 13.6738 13.8301 13.9512 13.8301 14.291C13.8301 14.4547 13.765 14.6117 13.6493 14.7274C13.5336 14.8432 13.3766 14.9082 13.2129 14.9082Z" fill="#8E8E93"/>
</svg>
