<svg width="16" height="17" viewBox="0 0 16 17" fill="none" xmlns="http://www.w3.org/2000/svg">
<path d="M2.707 15.207C2.61475 15.3025 2.50441 15.3787 2.38241 15.4311C2.2604 15.4835 2.12918 15.5111 1.9964 15.5123C1.86362 15.5134 1.73194 15.4881 1.60905 15.4378C1.48615 15.3875 1.3745 15.3133 1.28061 15.2194C1.18671 15.1255 1.11246 15.0139 1.06218 14.891C1.0119 14.7681 0.986597 14.6364 0.987751 14.5036C0.988905 14.3708 1.01649 14.2396 1.0689 14.1176C1.12131 13.9956 1.19749 13.8852 1.293 13.793L13.293 1.793C13.4816 1.61084 13.7342 1.51005 13.9964 1.51233C14.2586 1.51461 14.5094 1.61977 14.6948 1.80518C14.8802 1.99059 14.9854 2.2414 14.9877 2.5036C14.99 2.7658 14.8892 3.0184 14.707 3.207L2.707 15.207ZM7 4C7 4.26522 6.89464 4.51957 6.70711 4.70711C6.51957 4.89464 6.26522 5 6 5C5.73479 5 5.48043 4.89464 5.29289 4.70711C5.10536 4.51957 5 4.26522 5 4C5 3.70333 4.91203 3.41332 4.74721 3.16665C4.58238 2.91997 4.34812 2.72771 4.07403 2.61418C3.79994 2.50065 3.49834 2.47095 3.20737 2.52882C2.91639 2.5867 2.64912 2.72956 2.43934 2.93934C2.22956 3.14912 2.0867 3.41639 2.02882 3.70737C1.97095 3.99834 2.00065 4.29994 2.11418 4.57403C2.22771 4.84812 2.41997 5.08238 2.66665 5.24721C2.91332 5.41203 3.20333 5.5 3.5 5.5C3.76522 5.5 4.01957 5.60536 4.20711 5.79289C4.39464 5.98043 4.5 6.23479 4.5 6.5C4.5 6.76522 4.39464 7.01957 4.20711 7.20711C4.01957 7.39464 3.76522 7.5 3.5 7.5C2.80777 7.5 2.13108 7.29473 1.55551 6.91015C0.979934 6.52556 0.53133 5.97893 0.266423 5.33939C0.00151649 4.69985 -0.0677952 3.99612 0.0672531 3.31719C0.202301 2.63825 0.535644 2.01461 1.02513 1.52513C1.51461 1.03564 2.13825 0.702301 2.81719 0.567253C3.49612 0.432205 4.19985 0.501516 4.83939 0.766423C5.47893 1.03133 6.02556 1.47993 6.41015 2.05551C6.79473 2.63108 7 3.30777 7 4ZM12.5 16.5C12.0404 16.5 11.5852 16.4095 11.1606 16.2336C10.736 16.0577 10.3501 15.7999 10.0251 15.4749C9.70012 15.1499 9.44231 14.764 9.26642 14.3394C9.09053 13.9148 9 13.4596 9 13C9 12.5404 9.09053 12.0852 9.26642 11.6606C9.44231 11.236 9.70012 10.8501 10.0251 10.5251C10.3501 10.2001 10.736 9.94231 11.1606 9.76642C11.5852 9.59053 12.0404 9.5 12.5 9.5C13.4283 9.5 14.3185 9.86875 14.9749 10.5251C15.6313 11.1815 16 12.0717 16 13C16 13.9283 15.6313 14.8185 14.9749 15.4749C14.3185 16.1313 13.4283 16.5 12.5 16.5ZM12.5 14.5C12.8978 14.5 13.2794 14.342 13.5607 14.0607C13.842 13.7794 14 13.3978 14 13C14 12.6022 13.842 12.2206 13.5607 11.9393C13.2794 11.658 12.8978 11.5 12.5 11.5C12.1022 11.5 11.7206 11.658 11.4393 11.9393C11.158 12.2206 11 12.6022 11 13C11 13.3978 11.158 13.7794 11.4393 14.0607C11.7206 14.342 12.1022 14.5 12.5 14.5Z" fill="#404040"/>
</svg>
