<svg width="13" height="13" viewBox="0 0 13 13" fill="none" xmlns="http://www.w3.org/2000/svg">
<mask id="path-1-inside-1_1323_183" fill="white">
<path d="M0.283254 4.99409L12.5476 0.13488L7.68787 12.3987L6.06811 6.84524L0.283254 4.99409Z"/>
</mask>
<path d="M27.6493 27.6839L30.8891 24.3288L-12.2734 -17.3486L-15.5131 -13.9935L27.6493 27.6839ZM30.8891 24.3288L34.1288 20.9736L-9.03361 -20.7038L-12.2734 -17.3486L30.8891 24.3288ZM0.283254 4.99409L-21.8176 -50.7872L-177.787 11.0088L-18.0033 62.1395L0.283254 4.99409ZM12.5476 0.13488L68.3277 22.2386L119.444 -106.756L-9.5533 -55.6464L12.5476 0.13488ZM7.68787 12.3987L-49.9121 29.1987L-0.950642 197.067L63.468 34.5025L7.68787 12.3987ZM6.06811 6.84524L63.6681 -9.95475L54.7363 -40.5781L24.3546 -50.3002L6.06811 6.84524ZM22.3842 60.7754L34.6485 55.9162L-9.5533 -55.6464L-21.8176 -50.7872L22.3842 60.7754ZM-43.2325 -21.9689L-48.0923 -9.70505L63.468 34.5025L68.3277 22.2386L-43.2325 -21.9689ZM65.2879 -4.40129L63.6681 -9.95475L-51.5319 23.6452L-49.9121 29.1987L65.2879 -4.40129ZM24.3546 -50.3002L18.5698 -52.1514L-18.0033 62.1395L-12.2184 63.9907L24.3546 -50.3002Z" fill="white" mask="url(#path-1-inside-1_1323_183)"/>
</svg>
