<svg width="6" height="9" viewBox="0 0 6 9" fill="none" xmlns="http://www.w3.org/2000/svg">
<path d="M4.74375 0.948438C4.275 0.5375 3.65625 0.3125 3 0.3125C2.34375 0.3125 1.725 0.539063 1.25625 0.948438C0.76875 1.375 0.5 1.94844 0.5 2.5625V2.68125C0.5 2.75 0.55625 2.80625 0.625 2.80625H1.375C1.44375 2.80625 1.5 2.75 1.5 2.68125V2.5625C1.5 1.87344 2.17344 1.3125 3 1.3125C3.82656 1.3125 4.5 1.87344 4.5 2.5625C4.5 3.04844 4.15625 3.49375 3.62344 3.69844C3.29219 3.825 3.01094 4.04687 2.80937 4.3375C2.60469 4.63437 2.49844 4.99062 2.49844 5.35156V5.6875C2.49844 5.75625 2.55469 5.8125 2.62344 5.8125H3.37344C3.44219 5.8125 3.49844 5.75625 3.49844 5.6875V5.33281C3.49925 5.18113 3.54574 5.03321 3.63187 4.90834C3.71799 4.78347 3.83975 4.68746 3.98125 4.63281C4.90312 4.27813 5.49844 3.46563 5.49844 2.5625C5.5 1.94844 5.23125 1.375 4.74375 0.948438ZM2.375 7.4375C2.375 7.60326 2.44085 7.76223 2.55806 7.87944C2.67527 7.99665 2.83424 8.0625 3 8.0625C3.16576 8.0625 3.32473 7.99665 3.44194 7.87944C3.55915 7.76223 3.625 7.60326 3.625 7.4375C3.625 7.27174 3.55915 7.11277 3.44194 6.99556C3.32473 6.87835 3.16576 6.8125 3 6.8125C2.83424 6.8125 2.67527 6.87835 2.55806 6.99556C2.44085 7.11277 2.375 7.27174 2.375 7.4375Z" fill="#8E8E93"/>
</svg>
